Jonah Hex (2010) 1080p X264 MKV AC3+DTS NLSubs

PLOT

The U.S. military makes a scarred bounty hunter with 
warrants on his own head an offer he cannot refuse: in 
exchange for his freedom, he must stop a terrorist who is 
ready to unleash Hell on Earth. 

MM:    http://www.moviemeter.nl/film/59139

IMDB:    http://www.imdb.com/title/tt1075747/

INFO

Source...........: 1080p
Bitrate..........: 12,1 Mbps
Audio 1..........: DTS
Audio 2..........: DD5.1
Subs.............: Dutch (selectable)
Vertaling........: SRT
Controle en Sync.: Guiker
Bewerking Source.: Guiker

Thanks To JoyTor

Enjoy This Nice Release

PLAYER INFO

   Video #1
      ID : 1
      Format : AVC
      Format/Info : Advanced Video Codec
      Format profile : High@L4.1
      Format settings, CABAC : Yes
      Format settings, ReFrames : 6 frames
      Muxing mode : Container profile=Unknown@4.1
      Codec ID : V_MPEG4/ISO/AVC
      Duration : 1h 21mn
      Bit rate : 12.1 Mbps
      Nominal bit rate : 12.4 Mbps
      Width : 1 920 pixels
      Height : 800 pixels
      Display aspect ratio : 2.40:1
      Frame rate : 23.976 fps
      Resolution : 24 bits
      Colorimetry : 4:2:0
      Scan type : Progressive
      Bits/(Pixel*Frame) : 0.330
      Stream size : 6.90 GiB (84%)
      Title : Jonah.Hex.2010.Bluray.1080p.DTS.x264-CHD
      Writing library : x264 core 84 r1416 fcf70c2
      Encoding settings : cabac=1 / ref=6 / deblock=1:-3:-3 / analyse=0x3:0x113 / 
me=umh / subme=10 / psy=1 / psy_rd=1.0:0.1 / mixed_ref=1 / me_range=64 / chroma_me=1 / 
trellis=2 / 8x8dct=1 / cqm=2 / deadzone=21,11 / fast_pskip=0 / chroma_qp_offset=-2 / 
threads=12 / sliced_threads=0 / nr=0 / decimate=1 / mbaff=0 / constrained_intra=0 / 
bframes=5 / b_pyramid=2 / b_adapt=2 / b_bias=0 / direct=3 / wpredb=1 / wpredp=2 / 
keyint=250 / keyint_min=25 / scenecut=40 / intra_refresh=0 / rc_lookahead=60 / 
rc=2pass / mbtree=1 / bitrate=12421 / ratetol=2.0 / qcomp=0.70 / qpmin=10 / 
qpmax=51 / qpstep=4 / cplxblur=20.0 / qblur=0.5 / vbv_maxrate=50000 / 
vbv_bufsize=50000 / ip_ratio=1.40 / aq=1:1.00
   Audio #2
      ID : 2
      Format : DTS
      Format/Info : Digital Theater Systems
      Codec ID : A_DTS
      Duration : 1h 21mn
      Bit rate mode : Constant
      Bit rate : 1 510 Kbps
      Channel(s) : 6 channels
      Channel positions : Front: L C R, Surround: L R, LFE
      Sampling rate : 48.0 KHz
      Resolution : 24 bits
      Stream size : 880 MiB (10%)
      Title : Jonah.Hex.2010.DTS-HD.MA Core_1509kbps
   Audio #3
      ID : 3
      Format : AC-3
      Format/Info : Audio Coding 3
      Codec ID : A_AC3
      Duration : 1h 21mn
      Bit rate mode : Constant
      Bit rate : 448 Kbps
      Channel(s) : 6 channels
      Channel positions : Front: L C R, Surround: L R, LFE
      Sampling rate : 48.0 KHz
      Stream size : 261 MiB (3%)
   Text #4
      ID : 4
      Format : UTF-8
      Codec ID : S_TEXT/UTF8
      Codec ID/Info : UTF-8 Plain Text
      Language : Dutch